<!-- <svg xmlns="http://www.w3.org/2000/svg" width="0.5em" height="0.5em" viewBox="0 0 24 24"><path fill="#ff5f0c" d="M12 2C6.48 2 2 6.48 2 12s4.48 10 10 10s10-4.48 10-10S17.52 2 12 2m0 4c1.93 0 3.5 1.57 3.5 3.5S13.93 13 12 13s-3.5-1.57-3.5-3.5S10.07 6 12 6m0 14c-2.03 0-4.43-.82-6.14-2.88a9.947 9.947 0 0 1 12.28 0C16.43 19.18 14.03 20 12 20"/></svg> -->

<!-- <svg xmlns="http://www.w3.org/2000/svg" width="0.5em" height="0.5em" viewBox="0 0 24 24" fill="none" stroke="#ff5f0c" stroke-width="2" stroke-linecap="round" stroke-linejoin="round" class="lucide lucide-user-round"><circle cx="12" cy="8" r="5"/><path d="M20 21a8 8 0 0 0-16 0"/></svg> -->

<!-- <svg xmlns="http://www.w3.org/2000/svg" width="0.5em" height="0.5em" viewBox="0 0 1664 1664">
    <path fill="#ff5f0c" d="M832 0Q673 0 560.5 112.5T448 384t112.5 271.5T832 768t271.5-112.5T1216 384t-112.5-271.5T832 0zm0 896q112 0 227 22t224 69.5t193.5 114t136 162.5t51.5 208q0 75-57 133.5t-135 58.5H192q-78 0-135-58.5T0 1472q0-112 51.5-208t136-162.5t193.5-114T605 918t227-22z"/>
</svg> -->

<svg xmlns="http://www.w3.org/2000/svg" width="0.5em" height="0.5em" viewBox="0 0 16 16"><path fill="#f0bc4c" d="M8 16A8 8 0 1 0 8 0a8 8 0 0 0 0 16M2.31 5.243A1 1 0 0 1 3.28 4H6a1 1 0 0 1 1 1v.116A4.2 4.2 0 0 1 8 5c.35 0 .69.04 1 .116V5a1 1 0 0 1 1-1h2.72a1 1 0 0 1 .97 1.243l-.311 1.242A2 2 0 0 1 11.439 8H11a2 2 0 0 1-1.994-1.839A3 3 0 0 0 8 6c-.393 0-.74.064-1.006.161A2 2 0 0 1 5 8h-.438a2 2 0 0 1-1.94-1.515zM4.969 9.75A3.5 3.5 0 0 0 8 11.5a3.5 3.5 0 0 0 3.032-1.75a.5.5 0 1 1 .866.5A4.5 4.5 0 0 1 8 12.5a4.5 4.5 0 0 1-3.898-2.25a.5.5 0 0 1 .866-.5z"/></svg>